<mxfile host="app.diagrams.net" agent="Mozilla/5.0 (Macintosh; Intel Mac OS X 10_15_7) AppleWebKit/537.36 (KHTML, like Gecko) Chrome/128.0.0.0 Safari/537.36" version="24.7.12">
  <diagram name="Страница — 1" id="ZSIhrVeTuiQ9-cP_6eAV">
    <mxGraphModel dx="2034" dy="805" grid="1" gridSize="10" guides="1" tooltips="1" connect="1" arrows="1" fold="1" page="1" pageScale="1" pageWidth="827" pageHeight="1169" math="0" shadow="0">
      <root>
        <mxCell id="0" />
        <mxCell id="1" parent="0" />
        <mxCell id="drdbW_eTKtq7JhNTjUMD-27" style="edgeStyle=orthogonalEdgeStyle;rounded=0;orthogonalLoop=1;jettySize=auto;html=1;entryX=0;entryY=0.5;entryDx=0;entryDy=0;endArrow=open;endFill=0;" parent="1" source="drdbW_eTKtq7JhNTjUMD-21" target="drdbW_eTKtq7JhNTjUMD-24" edge="1">
          <mxGeometry relative="1" as="geometry" />
        </mxCell>
        <mxCell id="drdbW_eTKtq7JhNTjUMD-26" value="" style="edgeStyle=orthogonalEdgeStyle;rounded=0;orthogonalLoop=1;jettySize=auto;html=1;endArrow=open;endFill=0;" parent="1" source="drdbW_eTKtq7JhNTjUMD-24" target="drdbW_eTKtq7JhNTjUMD-25" edge="1">
          <mxGeometry relative="1" as="geometry" />
        </mxCell>
        <mxCell id="drdbW_eTKtq7JhNTjUMD-25" value="&lt;h1&gt;Domain&lt;/h1&gt;" style="whiteSpace=wrap;html=1;verticalAlign=top;dashed=1;movable=1;resizable=1;rotatable=1;deletable=1;editable=1;locked=0;connectable=1;fillColor=#dae8fc;strokeColor=#6c8ebf;" parent="1" vertex="1">
          <mxGeometry x="280" y="830" width="280" height="80" as="geometry" />
        </mxCell>
        <mxCell id="drdbW_eTKtq7JhNTjUMD-71" value="" style="group" parent="1" vertex="1" connectable="0">
          <mxGeometry x="280" y="470" width="280" height="290" as="geometry" />
        </mxCell>
        <mxCell id="drdbW_eTKtq7JhNTjUMD-24" value="&lt;h1&gt;Application&lt;/h1&gt;" style="whiteSpace=wrap;html=1;verticalAlign=top;dashed=1;fillColor=#f8cecc;strokeColor=#b85450;" parent="drdbW_eTKtq7JhNTjUMD-71" vertex="1">
          <mxGeometry width="280" height="290" as="geometry" />
        </mxCell>
        <mxCell id="drdbW_eTKtq7JhNTjUMD-41" value="use-cases / actions" style="rounded=0;whiteSpace=wrap;html=1;" parent="drdbW_eTKtq7JhNTjUMD-71" vertex="1">
          <mxGeometry x="60" y="70" width="160" height="60" as="geometry" />
        </mxCell>
        <mxCell id="drdbW_eTKtq7JhNTjUMD-45" value="repositories (contracts)" style="rounded=0;whiteSpace=wrap;html=1;" parent="drdbW_eTKtq7JhNTjUMD-71" vertex="1">
          <mxGeometry x="60" y="140" width="160" height="60" as="geometry" />
        </mxCell>
        <mxCell id="drdbW_eTKtq7JhNTjUMD-66" value="stores" style="rounded=0;whiteSpace=wrap;html=1;" parent="drdbW_eTKtq7JhNTjUMD-71" vertex="1">
          <mxGeometry x="60" y="210" width="160" height="60" as="geometry" />
        </mxCell>
        <mxCell id="drdbW_eTKtq7JhNTjUMD-73" value="" style="group" parent="1" vertex="1" connectable="0">
          <mxGeometry x="-60" y="578.44" width="260" height="73.12" as="geometry" />
        </mxCell>
        <mxCell id="drdbW_eTKtq7JhNTjUMD-21" value="&lt;h1&gt;Presentation&lt;/h1&gt;" style="whiteSpace=wrap;html=1;verticalAlign=top;dashed=1;fillColor=#e1d5e7;strokeColor=#9673a6;" parent="drdbW_eTKtq7JhNTjUMD-73" vertex="1">
          <mxGeometry width="260" height="73.12" as="geometry" />
        </mxCell>
        <mxCell id="s9MpZ3zN8tGaRWLF2dMQ-2" value="" style="group;movable=1;resizable=1;rotatable=1;deletable=1;editable=1;locked=0;connectable=1;" parent="1" vertex="1" connectable="0">
          <mxGeometry x="680" y="540" width="260" height="300" as="geometry" />
        </mxCell>
        <mxCell id="drdbW_eTKtq7JhNTjUMD-50" value="" style="group;glass=0;rounded=0;fillColor=#d5e8d4;strokeColor=none;movable=1;resizable=1;rotatable=1;deletable=1;editable=1;locked=0;connectable=1;container=0;" parent="s9MpZ3zN8tGaRWLF2dMQ-2" vertex="1" connectable="0">
          <mxGeometry width="260" height="240" as="geometry" />
        </mxCell>
        <mxCell id="drdbW_eTKtq7JhNTjUMD-23" value="&lt;h1&gt;Infrastructure&lt;/h1&gt;" style="whiteSpace=wrap;html=1;verticalAlign=top;dashed=1;fillColor=#d5e8d4;strokeColor=#82b366;container=0;" parent="s9MpZ3zN8tGaRWLF2dMQ-2" vertex="1">
          <mxGeometry width="260" height="300" as="geometry" />
        </mxCell>
        <mxCell id="drdbW_eTKtq7JhNTjUMD-48" style="edgeStyle=orthogonalEdgeStyle;rounded=0;orthogonalLoop=1;jettySize=auto;html=1;entryX=1;entryY=0.5;entryDx=0;entryDy=0;exitX=1;exitY=0.5;exitDx=0;exitDy=0;endArrow=open;endFill=0;" parent="s9MpZ3zN8tGaRWLF2dMQ-2" source="drdbW_eTKtq7JhNTjUMD-46" target="drdbW_eTKtq7JhNTjUMD-47" edge="1">
          <mxGeometry relative="1" as="geometry">
            <Array as="points">
              <mxPoint x="220" y="100" />
              <mxPoint x="220" y="170" />
            </Array>
          </mxGeometry>
        </mxCell>
        <mxCell id="drdbW_eTKtq7JhNTjUMD-46" value="services" style="rounded=0;whiteSpace=wrap;html=1;container=0;" parent="s9MpZ3zN8tGaRWLF2dMQ-2" vertex="1">
          <mxGeometry x="55" y="70" width="150" height="60" as="geometry" />
        </mxCell>
        <mxCell id="drdbW_eTKtq7JhNTjUMD-47" value="dtos" style="rounded=0;whiteSpace=wrap;html=1;container=0;" parent="s9MpZ3zN8tGaRWLF2dMQ-2" vertex="1">
          <mxGeometry x="55" y="140" width="150" height="60" as="geometry" />
        </mxCell>
        <mxCell id="s9MpZ3zN8tGaRWLF2dMQ-1" value="interceptors" style="rounded=0;whiteSpace=wrap;html=1;container=0;" parent="s9MpZ3zN8tGaRWLF2dMQ-2" vertex="1">
          <mxGeometry x="55" y="210" width="150" height="60" as="geometry" />
        </mxCell>
        <mxCell id="drdbW_eTKtq7JhNTjUMD-28" style="edgeStyle=orthogonalEdgeStyle;rounded=0;orthogonalLoop=1;jettySize=auto;html=1;entryX=1;entryY=0.5;entryDx=0;entryDy=0;endArrow=block;endFill=0;exitX=0;exitY=0.5;exitDx=0;exitDy=0;dashed=1;" parent="1" source="drdbW_eTKtq7JhNTjUMD-46" target="drdbW_eTKtq7JhNTjUMD-45" edge="1">
          <mxGeometry relative="1" as="geometry">
            <Array as="points">
              <mxPoint x="670" y="640" />
              <mxPoint x="670" y="640" />
            </Array>
          </mxGeometry>
        </mxCell>
      </root>
    </mxGraphModel>
  </diagram>
</mxfile>
